<?xml version="1.0" encoding="UTF-8"?>
<svg id="Layer_1" data-name="Layer 1" xmlns="http://www.w3.org/2000/svg" xmlns:xlink="http://www.w3.org/1999/xlink" viewBox="0 0 3082.35 1709.22">
  <defs>
    <style>
      .cls-1 {
        fill: #547dbd;
      }

      .cls-1, .cls-2, .cls-3, .cls-4, .cls-5, .cls-6, .cls-7, .cls-8 {
        stroke-width: 0px;
      }

      .cls-2 {
        fill: #0f0f0f;
      }

      .cls-3 {
        fill: #37a752;
      }

      .cls-4 {
        fill: none;
      }

      .cls-5 {
        fill: #4ec6e7;
      }

      .cls-9 {
        clip-path: url(#clippath);
      }

      .cls-6 {
        fill: #e84234;
      }

      .cls-7 {
        fill: #7ac143;
      }

      .cls-8 {
        fill: #8b288b;
      }
    </style>
    <clipPath id="clippath">
      <rect class="cls-4" y="0" width="3082.35" height="1709.22"/>
    </clipPath>
  </defs>
  <polygon class="cls-6" points="494.25 768.38 435.83 750.37 265.59 805.44 113.91 898.9 87.02 985.7 87.02 1114.21 113.91 1155.11 172.55 1169.63 245.79 1160.94 319.64 1110.88 396.62 1028.26 441.05 949.4 485.49 851.75 494.25 768.38"/>
  <g class="cls-9">
    <path class="cls-2" d="m565.95,1158.02c0,4.36-3.62,7.87-10.88,10.52s-22.01,4.01-44.25,4.01c-16.95,0-30.98-1.36-42.1-4.01-11.12-2.65-16.69-6.16-16.69-10.52v-136.41c-16.44,21.77-34.58,42.21-54.4,61.31-19.84,19.12-41.36,35.92-64.58,50.43-23.22,14.52-48,25.88-74.36,34.1-26.38,8.22-54.31,12.33-83.81,12.33-26.11,0-49.95-2.66-71.46-7.98-21.54-5.31-39.91-13.31-55.15-23.94-15.24-10.64-27.1-23.7-35.56-39.19C4.24,1093.22,0,1075.31,0,1055c0-31.93,7.39-61.79,22.13-89.6,14.74-27.83,34.34-53.35,58.77-76.55,24.42-23.22,52.6-44.01,84.53-62.41,31.93-18.37,65.17-33.85,99.77-46.42,34.58-12.58,69.29-22.13,104.11-28.66,34.84-6.54,67.49-9.8,97.97-9.8h5.79c9.18-.48,19.1-.73,29.75-.73s20.68.73,30.11,2.17c9.43,1.47,17.28,3.64,23.59,6.54,6.29,2.89,9.43,7.24,9.43,13.05v395.44Zm-391.08-2.9c24.18,0,47.27-6.05,69.31-18.13,21.99-12.1,42.43-28.31,61.29-48.62,18.86-20.31,36.29-43.64,52.25-70.02,15.96-26.35,30.11-53.68,42.43-81.98,12.34-28.29,23-56.83,31.93-85.62,8.94-28.77,15.83-55.52,20.68-80.17-23.2,1.44-47.65,5.55-73.28,12.32-25.65,6.78-50.92,15.86-75.82,27.21-24.93,11.38-48.86,25.15-71.83,41.36-22.98,16.21-43.18,34.6-60.59,55.14-17.41,20.57-31.33,43.18-41.71,67.85-10.42,24.67-15.61,51.51-15.61,80.54,0,31.92,5.68,56.59,17.04,74,11.36,17.43,26.01,26.12,43.9,26.12"/>
    <polygon class="cls-3" points="1176.37 756.2 978.58 829.64 875.11 938.17 830.87 1046.61 850.9 1121.72 895.97 1169.63 978.58 1163.44 1064.55 1127.56 1158.84 1016.57 1225.6 892.23 1243.14 793.75 1203.06 756.2 1176.37 756.2"/>
    <path class="cls-2" d="m1265.26,0c20.31,0,34.84,1.69,43.55,5.07,8.7,3.38,13.05,6.78,13.05,10.17v1142.77c0,4.36-3.64,7.87-10.9,10.52-7.24,2.65-21.99,4.01-44.25,4.01-16.93,0-30.96-1.36-42.08-4.01-11.12-2.65-16.69-6.16-16.69-10.52v-136.41c-16.44,21.77-34.58,42.21-54.42,61.31-19.84,19.12-41.35,35.92-64.57,50.43-23.22,14.52-48.02,25.88-74.37,34.1-26.38,8.22-54.32,12.33-83.81,12.33-26.12,0-49.95-2.66-71.48-7.98-21.53-5.31-39.91-13.31-55.14-23.94-15.24-10.64-27.1-23.7-35.55-39.19-8.47-15.46-12.7-33.37-12.7-53.68s4.1-40.15,12.34-59.51c8.22-19.34,19.23-38.09,33.02-56.22,13.79-18.14,29.62-35.68,47.52-52.61,17.89-16.91,36.75-32.65,56.6-47.16,22.23-15.48,46.07-29.14,71.46-41,25.39-11.84,51.15-21.88,77.27-30.11,26.12-8.22,52.25-14.39,78.35-18.51,26.12-4.09,51.27-6.4,75.47-6.89V15.25c0-4.37,4.96-7.98,14.87-10.9C1232.72,1.44,1246.88,0,1265.26,0m-334.48,1155.11c24.18,0,47.27-6.05,69.29-18.13,22.01-12.1,42.43-28.31,61.31-48.62,18.86-20.31,36.29-43.64,52.23-70.02,15.97-26.35,30.13-53.68,42.45-81.98,12.34-28.29,22.98-56.83,31.93-85.62,8.94-28.77,15.83-55.52,20.67-80.17-23.2,1.44-47.64,5.55-73.26,12.32-25.65,6.78-50.92,15.86-75.82,27.21-24.93,11.38-48.88,25.15-71.84,41.36-22.98,16.21-43.17,34.6-60.59,55.14-17.41,20.57-31.31,43.18-41.72,67.85-10.41,24.67-15.61,51.51-15.61,80.54,0,31.92,5.68,56.59,17.06,74,11.36,17.43,26,26.12,43.9,26.12"/>
    <path class="cls-2" d="m1638.94,1178.34c-21.3,0-35.19-1.45-41.72-4.36-6.54-2.9-10.53-5.81-11.97-8.7h.72l-24.67-46.44c-9.69-18.38-21.16-40.02-34.47-64.95-13.31-24.9-27.21-50.78-41.71-77.64-14.52-26.84-28.66-53.33-42.45-79.44-13.79-26.12-26.25-49.71-37.37-70.76-11.14-21.03-20.08-38.09-26.84-51.15-6.77-13.07-10.17-20.06-10.17-21.03,0-1.47,2.44-2.9,7.26-4.36,4.85-1.45,10.88-2.9,18.14-4.36,7.24-1.45,15.11-2.55,23.59-3.27,8.44-.72,16.07-1.09,22.85-1.09,7.26,0,14.87.26,22.85.73s15.24,1.2,21.77,2.17c6.53.97,12.08,2.07,16.69,3.26,4.58,1.23,7.36,2.55,8.35,4.01l187.92,339.57c12.56-24.69,26.12-50.56,40.63-77.64,14.51-27.1,29.14-54.54,43.9-82.36,14.74-27.82,29.51-55.63,44.27-83.45,14.75-27.81,28.65-54.53,41.71-80.17,1.45-1.45,2.65-3.38,3.62-5.81.97-2.41,2.06-4.84,3.27-7.24,1.2-2.43,2.89-4.6,5.07-6.54,2.19-1.92,5.44-3.38,9.8-4.36,5.81,0,10.26.26,13.42.73,3.14.48,5.31,1.21,6.53,2.17,1.2.97,1.8,2.19,1.8,3.64v4.36c0,.97-3.13,7.5-9.42,19.58-6.3,12.1-14.63,27.94-25.04,47.52-10.41,19.6-22.13,41.86-35.19,66.75-13.07,24.93-26.49,50.19-40.28,75.82-13.77,25.65-27.19,50.92-40.26,75.83-13.05,24.93-24.91,47.04-35.56,66.39-4.83,9.19-10.28,19.12-16.32,29.74-6.05,10.64-11.49,20.57-16.32,29.76-1.95,3.38-6.53,6.4-13.77,9.06-7.26,2.65-20.82,3.99-40.64,3.99"/>
    <polygon class="cls-1" points="2030.9 953.98 2360.53 953.98 2309.37 819.63 2238.69 772.89 2126.87 756.2 2054.26 780.41 2000.85 855.09 2030.9 953.98"/>
    <path class="cls-2" d="m2024.95,964.29c.48,29.03,4.36,55.15,11.62,78.35,7.24,23.22,17.39,43.07,30.46,59.51,13.05,16.45,28.66,29.03,46.8,37.72,18.13,8.71,38.32,13.07,60.58,13.07,13.05,0,25.76-2.19,38.09-6.54,12.34-4.36,23.95-9.8,34.84-16.32,10.88-6.53,21.03-13.42,30.46-20.67,9.43-7.26,17.78-13.79,25.04-19.6,2.9-2.41,5.55-4.6,7.98-6.53,2.41-1.93,5.44-3.64,9.06-5.09,3.64-1.44,8.22-2.65,13.79-3.62,5.55-.96,12.94-1.45,22.13-1.45,14.98,0,27.69,1.1,38.09,3.27,10.41,2.17,16.07,4.71,17.04,7.61-.97-1.45-3.5-.24-7.61,3.62-4.12,3.88-8.84,8.47-14.16,13.79-14.03,14.04-28.66,25.88-43.89,35.55-15.24,9.69-31.82,17.78-49.71,24.3-17.91,6.53-37.25,11.25-58.06,14.15-20.79,2.9-43.77,4.36-68.92,4.36-40.15,0-76.18-5.2-108.1-15.61-31.93-10.39-59.14-25.28-81.63-44.62-22.5-19.34-39.67-42.56-51.51-69.66-11.86-27.08-17.78-57.07-17.78-89.97s6.51-60.59,19.58-87.43c13.05-26.84,31.21-49.93,54.42-69.29,23.22-19.34,50.91-34.47,83.08-45.34,32.17-10.9,67.12-16.33,104.86-16.33,33.37,0,65.17,5.43,95.41,16.33,30.21,10.87,56.96,25.52,80.16,43.88,23.22,18.38,41.6,39.91,55.15,64.58,13.53,24.67,20.31,51.03,20.31,79.09,0,12.58-21.29,18.86-63.86,18.86h-333.75Zm284.42-26.12c-2.91-24.18-8.46-46.68-16.68-67.49-8.23-20.78-18.51-38.81-30.85-54.05-12.34-15.24-26.62-27.08-42.82-35.55-16.2-8.46-33.5-12.69-51.88-12.69s-34.82,4.36-50.79,13.05c-15.94,8.71-30.22,20.68-42.8,35.92-12.57,15.22-23.11,33.15-31.56,53.68-8.46,20.57-14.16,42.7-17.04,66.39l284.42.73Z"/>
    <path class="cls-2" d="m2558.97,769.84c-1.45,0-4.6,1.34-9.43,3.99-4.84,2.66-10.29,6.17-16.33,10.52-6.05,4.36-12.59,8.97-19.6,13.79-7.01,4.85-13.42,9.43-19.23,13.79-6.78,4.84-13.79,8.71-21.03,11.6-7.26,2.9-17.91,4.37-31.93,4.37-16.93,0-29.75-2.3-38.44-6.91-8.71-4.6-14.27-9.07-16.69-13.42,0-6.27,7.26-13.29,21.77-21.03,14.51-7.74,31.68-14.76,51.51-21.05,19.84-6.29,39.54-11.6,59.12-15.96,19.6-4.36,34.47-6.54,44.62-6.54,19.85,0,36.53,1.95,50.08,5.81,13.53,3.88,24.67,9.08,33.37,15.61,8.71,6.53,15.37,14.27,19.96,23.22,4.6,8.95,7.85,18.27,9.8,27.94,23.22-19.34,49.34-36.29,78.35-50.81,29.03-14.51,60.96-21.77,95.78-21.77,22.25,0,42.32,2.54,60.23,7.63,17.89,5.07,33.24,12.22,46.07,21.4,12.81,9.19,22.6,20.2,29.38,33.02,6.78,12.83,10.17,26.97,10.17,42.45,0,10.64-3.14,22.63-9.43,35.91-6.29,13.31-15.13,25.88-26.49,37.74-11.36,11.86-24.91,21.77-40.63,29.75-15.72,7.98-33,11.97-51.86,11.97-24.21,0-40.17-1.93-47.91-5.81,9.19-5.31,15.48-9.06,18.86-11.23,3.38-2.19,7.5-4.72,12.34-7.63,3.4-1.92,6.89-4.45,10.53-7.61,3.62-3.14,7.13-7.74,10.52-13.79,3.37-6.03,6.17-14.03,8.35-23.95,2.17-9.89,3.25-22.6,3.25-38.09,0-26.11-3.25-46.79-9.78-62.03-6.53-15.22-16.09-22.85-28.66-22.85-8.71,0-20.94,5.44-36.64,16.33-15.73,10.88-31.82,23.94-48.26,39.19-16.45,15.22-32.17,30.94-47.16,47.16-15,16.21-26.12,29.64-33.39,40.26v245.24c0,4.36-5.92,7.87-17.78,10.52-11.86,2.66-25.52,4.01-41,4.01-12.1,0-21.75-.37-29.01-1.1-7.26-.72-12.83-1.69-16.69-2.9-3.88-1.2-6.43-2.65-7.63-4.36-1.21-1.67-1.8-3.73-1.8-6.16v-329.05c0-10.39-.26-19.95-.73-28.66-.48-8.7-1.2-15.96-2.19-21.77-.96-5.79-2.41-8.7-4.34-8.7"/>
    <path class="cls-2" d="m619.63,1520.64c-4.82,20.73-8.43,39.9-10.76,57.47-2.38,17.59-2.62,33.05-.77,46.39,1.85,13.34,6.32,24.56,13.4,33.66,7.07,9.1,17.68,15.29,31.8,18.57,8.47,1.98,17.49,1.72,27-.78,9.53-2.49,18.91-6.02,28.17-10.56,9.26-4.56,18.02-9.72,26.33-15.48,8.28-5.76,15.69-10.88,22.18-15.32l-.7-.16c2.43-1.93,4.93-3.57,7.49-4.96,2.55-1.39,5.78-2.39,9.64-2.98,3.85-.59,8.57-.61,14.17-.05,5.57.54,13.07,1.93,22.5,4.12,10.36,2.43,20.36,5.36,29.97,8.84,9.62,3.49,16.52,6.96,20.68,10.4l-21.08,13.72,5.65,1.31c-21.61,20.3-49.69,33.75-84.26,40.36-34.57,6.59-72.34,5.14-113.34-4.4-36.29-8.46-65.06-19.26-86.32-32.41-21.29-13.15-36.99-28.36-47.12-45.61-10.12-17.27-15.21-36.56-15.19-57.93,0-21.34,3.21-44.7,9.61-70.02l56.55-223.73-86.14,14.22c-4.36.72-8.73,1.24-13.13,1.56l-29.08,2.14c-6.42.48-12.93-1.21-17.87-5.31-3.45-2.86-4.87-5.57-4.28-8.11,1.21-5.17,6.26-4.26,18.46-5.76l45.29-8.87,92.67-15.3,87.45-327.55c1.34-3.65,7.34-5.86,17.94-6.62,10.61-.75,24.14.78,40.65,4.63,19.79,4.61,33.59,9.3,41.41,14.11,7.82,4.8,11.23,9.32,10.26,13.56l-85.34,328.03,136.84,100.28,35.92,26.81c12.69,8.94,14.2,14.25,13.33,18-.49,2.12-2.06,2.54-4.92,2.3-8.22-.65-16.13-3.37-23.39-7.26l-26.86-14.41-138.24-100.6c-2.52,10.84-5.7,23.38-9.51,37.65-3.83,14.27-6.93,26.57-9.34,36.94-6.88,25.2-13.4,50.03-19.58,74.41-6.18,24.38-12.22,49.29-18.15,74.73m241.11,129.15l2.7,4.36c.22-.94.34-1.9.3-2.9-.02-1.01.03-1.72.14-2.2l.33-1.42-3.48,2.17Z"/>
    <polygon class="cls-8" points="1046.91 1457.91 1110.24 1337.75 1185.86 1294.42 1247.2 1283.92 1336.7 1296.61 1394.66 1350.88 1446.23 1431.01 1446.23 1477.94 1077.59 1477.94 1046.91 1457.91"/>
    <path class="cls-2" d="m1110.24,1490.34c.48,29.03,4.36,55.15,11.62,78.35,7.24,23.22,17.4,43.07,30.46,59.51,13.05,16.45,28.66,29.03,46.81,37.73,18.13,8.71,38.32,13.07,60.58,13.07,13.05,0,25.76-2.19,38.09-6.54,12.35-4.36,23.95-9.8,34.84-16.32,10.88-6.53,21.05-13.42,30.46-20.67,9.45-7.26,17.78-13.79,25.04-19.6,2.9-2.41,5.55-4.6,7.98-6.53,2.41-1.93,5.44-3.64,9.08-5.09,3.62-1.44,8.22-2.65,13.79-3.62,5.55-.96,12.93-1.45,22.12-1.45,15,0,27.7,1.1,38.09,3.27,10.41,2.17,16.09,4.71,17.04,7.61-.96-1.45-3.49-.24-7.6,3.62-4.12,3.88-8.86,8.47-14.16,13.79-14.04,14.04-28.68,25.88-43.9,35.55-15.24,9.69-31.81,17.78-49.71,24.3-17.89,6.53-37.25,11.25-58.02,14.15-20.83,2.9-43.81,4.36-68.96,4.36-40.13,0-76.18-5.2-108.1-15.61-31.93-10.39-59.14-25.28-81.63-44.62-22.5-19.34-39.67-42.56-51.51-69.66-11.86-27.08-17.78-57.07-17.78-89.97s6.53-60.59,19.6-87.43c13.05-26.84,31.2-49.93,54.4-69.29,23.23-19.34,50.91-34.47,83.08-45.34,32.17-10.9,67.12-16.33,104.86-16.33,33.37,0,65.17,5.43,95.41,16.33,30.21,10.87,56.96,25.52,80.16,43.88,23.23,18.38,41.6,39.91,55.15,64.58,13.55,24.67,20.33,51.03,20.33,79.09,0,12.58-21.3,18.86-63.85,18.86h-333.78Zm284.42-26.12c-2.89-24.18-8.46-46.68-16.68-67.49-8.23-20.78-18.51-38.81-30.83-54.05-12.34-15.24-26.63-27.08-42.83-35.55-16.2-8.46-33.5-12.7-51.86-12.7s-34.84,4.37-50.78,13.07c-15.97,8.71-30.24,20.68-42.83,35.92-12.57,15.22-23.09,33.15-31.56,53.68-8.46,20.57-14.14,42.7-17.04,66.39l284.42.73Z"/>
    <polygon class="cls-5" points="2039.89 1294.43 1981.47 1276.41 1811.23 1331.48 1659.55 1424.95 1632.66 1511.74 1632.66 1640.25 1659.55 1681.15 1718.19 1695.68 1791.42 1686.98 1865.28 1636.92 1942.26 1554.3 1986.69 1475.44 2031.13 1377.79 2039.89 1294.43"/>
    <path class="cls-2" d="m2084.68,1684.06c0,4.36-3.62,7.87-10.88,10.52-7.24,2.65-22.02,3.99-44.25,3.99-16.93,0-30.97-1.34-42.08-3.99-11.14-2.65-16.69-6.16-16.69-10.52v-136.41c-16.45,21.77-34.58,42.21-54.42,61.31-19.84,19.12-41.36,35.92-64.57,50.43-23.24,14.52-48.02,25.88-74.4,34.1-26.36,8.22-54.29,12.33-83.78,12.33-26.12,0-49.97-2.66-71.48-7.98-21.53-5.31-39.91-13.31-55.15-23.94-15.22-10.64-27.08-23.7-35.54-39.19-8.47-15.46-12.7-33.37-12.7-53.68,0-31.93,7.37-61.79,22.12-89.6,14.76-27.83,34.36-53.35,58.77-76.55,24.42-23.22,52.61-44.01,84.53-62.41,31.93-18.37,65.17-33.85,99.77-46.42,34.58-12.58,69.31-22.13,104.13-28.66,34.84-6.54,67.49-9.8,97.95-9.8h5.81c9.18-.48,19.09-.73,29.75-.73s20.68.73,30.11,2.17c9.43,1.47,17.28,3.64,23.59,6.54,6.27,2.89,9.42,7.24,9.42,13.05v395.44Zm-391.07-2.9c24.18,0,47.27-6.05,69.29-18.14,22.01-12.08,42.43-28.29,61.31-48.61,18.86-20.31,36.26-43.64,52.23-70.02,15.96-26.35,30.11-53.68,42.45-81.98,12.34-28.29,22.98-56.83,31.92-85.62,8.95-28.77,15.85-55.52,20.68-80.17-23.2,1.44-47.64,5.55-73.26,12.32-25.66,6.78-50.92,15.85-75.85,27.21-24.91,11.38-48.85,25.15-71.81,41.36-22.98,16.21-43.18,34.6-60.59,55.14-17.41,20.57-31.33,43.18-41.71,67.85-10.42,24.67-15.61,51.51-15.61,80.54,0,31.92,5.68,56.59,17.04,74,11.38,17.43,26.01,26.12,43.92,26.12"/>
    <path class="cls-2" d="m2348.07,1678.98c5.81,0,11.86-1.08,18.13-3.27,6.29-2.17,11.98-5.67,17.06-10.52,5.09-4.83,9.06-10.63,11.98-17.41,2.89-6.77,4.1-14.98,3.62-24.67-.48-6.77-2.92-13.53-7.26-20.31-4.36-6.77-9.93-13.05-16.68-18.86-6.78-5.81-14.41-11.12-22.87-15.96-8.47-4.84-16.82-8.71-25.04-11.62h.73c-17.41-6.29-34.47-14.15-51.16-23.59-16.68-9.43-31.56-20.19-44.62-32.28-13.05-12.08-23.71-24.91-31.93-38.46-8.24-13.53-12.32-27.32-12.32-41.35,0-24.67,6.16-46.55,18.5-65.68,12.34-19.1,28.9-34.93,49.69-47.52,20.79-12.56,44.38-22.12,70.74-28.66,26.38-6.53,53.83-9.78,82.36-9.78,4.36,0,11.01.35,19.95,1.08,8.95.73,18.75,1.71,29.4,2.9,10.63,1.21,21.66,2.78,33,4.72,11.38,1.93,21.66,4.34,30.86,7.24,9.16,2.9,16.79,6.29,22.84,10.17,6.05,3.88,9.08,7.98,9.08,12.32,0,3.88-5.2,6.89-15.61,9.08-10.41,2.17-23.83,3.26-40.28,3.26-9.67,0-16.79-.59-21.38-1.8-4.63-1.21-9.34-2.78-14.16-4.72h.72c-4.83-1.93-10.28-3.99-16.32-6.16-6.06-2.19-11.97-4.23-17.78-6.18-5.81-1.92-11.12-3.49-15.96-4.71-4.84-1.21-8.71-1.82-11.6-1.82-13.05,0-25.76,1.58-38.11,4.72-12.34,3.14-23.22,8.59-32.63,16.33-9.45,7.74-16.95,18.13-22.5,31.2-5.57,13.05-8.11,29.51-7.63,49.34.48,11.6,4.48,21.53,11.97,29.75,7.52,8.23,16.71,15.13,27.58,20.68,10.88,5.55,22.37,10.15,34.49,13.77,12.08,3.64,22.72,7.15,31.92,10.53,16.44,5.79,31.2,11.97,44.27,18.49,13.05,6.53,23.94,14.28,32.65,23.22,8.7,8.95,15.33,20.08,19.95,33.38,4.58,13.31,6.62,29.86,6.18,49.69-.51,19.84-5.35,36.66-14.52,50.43-9.19,13.79-21.42,25.15-36.64,34.1-15.24,8.95-32.54,15.49-51.88,19.6-19.36,4.1-39.43,6.18-60.23,6.18-6.29,0-17.19-.49-32.65-1.47-15.48-.97-31.2-2.78-47.16-5.42-15.97-2.68-30.02-6.05-42.1-10.17-12.08-4.12-18.13-9.3-18.13-15.61,0-3.37,2.04-5.9,6.16-7.61,4.1-1.69,9.19-2.9,15.24-3.64,6.03-.72,12.93-1.2,20.67-1.44,7.74-.24,15.26-.37,22.5-.37l76.92,18.86Z"/>
    <polygon class="cls-7" points="2612.26 1457.91 2675.58 1337.75 2751.21 1294.42 2812.55 1283.92 2902.04 1296.61 2960 1350.88 3011.58 1431.01 3011.58 1477.94 2642.93 1477.94 2612.26 1457.91"/>
    <path class="cls-2" d="m2684.73,1490.34c.48,29.03,4.37,55.15,11.63,78.35,7.23,23.22,17.39,43.07,30.46,59.51,13.05,16.45,28.65,29.03,46.79,37.73,18.15,8.71,38.33,13.07,60.59,13.07,13.05,0,25.76-2.19,38.09-6.54,12.34-4.36,23.94-9.8,34.84-16.32,10.88-6.53,21.03-13.42,30.46-20.67,9.43-7.26,17.78-13.79,25.04-19.6,2.89-2.41,5.55-4.6,7.98-6.53,2.41-1.93,5.44-3.64,9.06-5.09,3.64-1.44,8.22-2.65,13.79-3.62,5.55-.96,12.93-1.45,22.13-1.45,14.98,0,27.67,1.1,38.09,3.27,10.39,2.17,16.07,4.71,17.04,7.61-.97-1.45-3.51-.24-7.61,3.62-4.12,3.88-8.84,8.47-14.16,13.79-14.04,14.04-28.66,25.88-43.9,35.55-15.22,9.69-31.8,17.78-49.69,24.3-17.91,6.53-37.25,11.25-58.06,14.15-20.79,2.9-43.77,4.36-68.92,4.36-40.15,0-76.18-5.2-108.1-15.61-31.93-10.39-59.14-25.28-81.63-44.62-22.5-19.34-39.69-42.56-51.51-69.66-11.89-27.08-17.79-57.07-17.79-89.97s6.53-60.59,19.58-87.43c13.07-26.84,31.2-49.93,54.43-69.29,23.22-19.34,50.91-34.47,83.08-45.34,32.16-10.9,67.1-16.33,104.83-16.33,33.38,0,65.21,5.43,95.41,16.33,30.24,10.87,56.99,25.52,80.19,43.88,23.22,18.38,41.6,39.91,55.14,64.58,13.55,24.67,20.33,51.03,20.33,79.09,0,12.58-21.3,18.86-63.86,18.86h-333.76Zm284.44-26.12c-2.91-24.18-8.46-46.68-16.69-67.49-8.22-20.78-18.51-38.81-30.85-54.05-12.34-15.24-26.6-27.08-42.8-35.55-16.21-8.46-33.5-12.7-51.88-12.7s-34.82,4.37-50.79,13.07c-15.94,8.71-30.24,20.68-42.8,35.92-12.57,15.22-23.11,33.15-31.56,53.68-8.47,20.57-14.16,42.7-17.06,66.39l284.44.73Z"/>
  </g>
</svg>